<svg width="31" height="30" fill="none" xmlns="http://www.w3.org/2000/svg"><path d="M10.46 16.574v-1.279c0-1.023-.563-1.944-1.432-2.456a2.866 2.866 0 0 0-2.865 0c-.87.512-1.382 1.433-1.382 2.456v1.279c0 .92.46 1.74 1.28 2.149.971.563 2.2.563 3.222 0 .717-.41 1.177-1.228 1.177-2.149ZM13.12 26.704c.512-.307.768-.819.666-1.382-.46-2.967-3.07-5.27-6.19-5.27a6.097 6.097 0 0 0-2.866.717c-.92.512-1.535 1.484-1.535 2.558 0 1.381.972 2.558 2.354 2.814 2.097.41 4.4.665 6.804.818.307-.05.563-.153.767-.255Z" fill="#C4C4C4"/><path d="M6.418 26.192c1.893.307 3.888.563 5.935.665.255 0 .511-.05.767-.204.512-.307.767-.819.665-1.382-.358-2.404-2.149-4.4-4.45-5.065a9.284 9.284 0 0 0-2.917 5.986Z" fill="#DCDCDC"/><path d="M26.267 16.574v-1.279c0-1.023-.563-1.944-1.432-2.456a2.866 2.866 0 0 0-2.865 0c-.87.512-1.433 1.433-1.433 2.456v1.279c0 .92.46 1.74 1.28 2.149.971.563 2.199.563 3.222 0 .768-.41 1.228-1.228 1.228-2.149ZM18.236 26.704c.255.102.511.153.767.153 2.251-.153 4.451-.409 6.446-.767a2.851 2.851 0 0 0 2.354-2.814 2.852 2.852 0 0 0-1.535-2.558 6.098 6.098 0 0 0-2.865-.716c-3.019 0-5.525 2.149-6.14 5.014-.102.716.308 1.432.973 1.688Z" fill="#C4C4C4"/><path d="M21.715 20.257c-2.25.614-3.94 2.456-4.4 4.758-.153.716.256 1.433.921 1.74.256.102.512.153.768.153 1.995-.102 3.837-.358 5.678-.665-.255-2.404-1.33-4.502-2.967-5.986Z" fill="#DCDCDC"/><path d="M19.157 14.732v-1.637c0-1.28-.665-2.507-1.79-3.121a3.556 3.556 0 0 0-3.633 0 3.607 3.607 0 0 0-1.79 3.12v1.638c0 1.125.613 2.2 1.585 2.762 1.28.717 2.814.717 4.042 0a3.222 3.222 0 0 0 1.586-2.762ZM15.525 19.08c-4.195 0-7.572 3.224-7.879 7.368 2.456.358 5.116.562 7.88.562 2.762 0 5.422-.204 7.878-.562-.307-4.144-3.684-7.367-7.879-7.367Z" fill="#E03"/><path d="m5.955 10.038 9.546-5.455 9.545 5.455" stroke="#92001F" stroke-width="2" stroke-linecap="round" stroke-linejoin="round"/></svg>
