<svg width="32" height="32" fill="none" xmlns="http://www.w3.org/2000/svg"><path d="M6.528 28.314c-.056 0-.111 0-.166-.113v-.056c-.278-.282-.5-.62-.721-.9-.111-.113-.056-.282.055-.395.11-.112.277-.056.388.057l.666.844c.11.112.11.337 0 .394-.056.112-.111.169-.222.169Zm18.801-.057c-.055 0-.11 0-.166-.056a.275.275 0 0 1 0-.394l.666-.844c.11-.113.277-.169.388-.056.11.112.166.281.055.393-.222.338-.443.62-.72.9-.056 0-.112.057-.223.057ZM4.975 25.95c-.11 0-.222-.056-.222-.169a19.472 19.472 0 0 1-.499-1.07c-.055-.168 0-.28.166-.393.167-.056.278 0 .389.169.166.337.277.675.499 1.013.055.112 0 .281-.111.394-.167.056-.167.056-.222.056Zm21.963 0c-.056 0-.111 0-.111-.056-.111-.057-.167-.225-.111-.394l.5-1.013c.055-.17.221-.225.387-.17.167.057.222.226.167.395-.167.337-.333.731-.5 1.069-.11.113-.221.169-.332.169ZM3.92 23.305c-.11 0-.222-.056-.277-.225-.111-.394-.167-.732-.277-1.126 0-.169.055-.281.221-.338.167 0 .278.057.333.226.056.337.167.731.222 1.069.056.169-.055.281-.222.337.056.057 0 .057 0 .057Zm24.07 0h-.055c-.166-.056-.222-.169-.222-.338.111-.337.167-.732.222-1.07 0-.168.166-.28.333-.224.166 0 .277.169.222.337a6.649 6.649 0 0 1-.278 1.126c0 .113-.11.169-.221.169ZM3.478 20.49c-.166 0-.277-.113-.277-.281V19.027c0-.168.111-.28.277-.28.167 0 .278.112.278.28v1.126c0 .225-.111.338-.277.338Zm24.958 0c-.055 0-.055 0 0 0-.166 0-.277-.113-.277-.281v-1.126c0-.169.11-.281.277-.281.167 0 .278.112.278.281v1.126c-.056.168-.167.28-.278.28ZM3.7 17.677c-.055 0-.055 0 0 0-.221-.056-.277-.169-.277-.338.055-.393.166-.787.277-1.125.056-.169.222-.225.333-.169.167.056.222.169.167.338-.111.337-.167.731-.222 1.069-.056.112-.167.225-.278.225Zm24.514 0c-.11 0-.221-.113-.277-.225-.055-.338-.166-.732-.222-1.07-.055-.168.056-.28.167-.337.166-.056.277.056.332.169.111.394.167.732.278 1.125.055.17-.056.282-.278.338.056 0 0 0 0 0ZM4.476 14.976h-.111c-.166-.057-.222-.225-.166-.394.166-.338.332-.732.499-1.07.055-.112.222-.168.388-.112.11.056.166.225.11.394l-.498 1.013c0 .112-.111.169-.222.169Zm22.961 0a.304.304 0 0 1-.277-.17c-.167-.337-.278-.674-.5-1.012-.055-.113 0-.281.111-.394.111-.056.278 0 .389.113.166.337.332.675.499 1.069.055.169 0 .281-.167.394h-.055ZM5.862 12.5c-.055 0-.11 0-.166-.057-.11-.112-.166-.281-.055-.394a5.67 5.67 0 0 1 .72-.9.265.265 0 0 1 .389 0c.11.113.11.281 0 .394l-.666.844a.418.418 0 0 1-.222.113Zm20.188 0c-.11 0-.166-.057-.221-.113l-.666-.844.388-.394-.222.169.222-.17c.222.282.5.564.721.901.111.113.056.282-.055.394-.056.057-.111.057-.167.057Zm-1.885-2.083c-.056 0-.111 0-.167-.056l-.832-.675c-.11-.113-.166-.282-.055-.394.11-.113.277-.17.388-.057.333.226.61.45.888.732.11.113.11.281 0 .394-.056 0-.167.056-.222.056Zm-16.417 0a.418.418 0 0 1-.222-.112.275.275 0 0 1 0-.394c.278-.225.555-.507.888-.732.11-.112.277-.056.388.056.11.113.055.282-.056.394l-.832.676c-.055.056-.11.112-.166.112Zm2.274-1.632c-.11 0-.222-.056-.222-.169-.055-.112 0-.281.111-.394.333-.168.666-.337 1.054-.506.166-.056.277 0 .388.169.056.169 0 .281-.166.394-.333.169-.666.281-.999.506h-.166Zm11.813 0c-.055 0-.11 0-.11-.056l-.999-.507c-.166-.056-.222-.225-.166-.393.055-.17.222-.226.388-.17.333.17.721.338 1.054.507.11.056.166.225.11.394-.055.169-.166.225-.277.225Zm-2.55-1.013h-.056c-.333-.112-.721-.169-1.054-.225-.166 0-.277-.169-.222-.337 0-.17.166-.282.333-.226.388.057.776.17 1.109.282.166.056.222.169.166.337-.055.057-.166.17-.277.17Zm-6.656 0c-.111 0-.222-.056-.278-.225-.055-.169.056-.281.167-.337.388-.113.72-.17 1.109-.282.166-.056.277.056.333.225 0 .17-.056.282-.222.338-.333.056-.721.169-1.054.225l-.055.056Zm3.882-.45h-1.11c-.166 0-.277-.112-.277-.281 0-.17.111-.282.278-.282h1.165c.166 0 .277.113.277.282-.056.168-.167.281-.333.281Z" fill="#828282"/><path d="M15.957 28.707c4.931 0 8.929-4.056 8.929-9.06 0-5.004-3.998-9.061-8.93-9.061-4.93 0-8.929 4.056-8.929 9.06 0 5.005 3.998 9.061 8.93 9.061Z" fill="#C4C4C4"/><path d="M13.794 22.18c0 .675.5 1.181 1.165 1.181h.11c.666 0 1.165-.506 1.165-1.182v-5.065c0-.9.333-1.688.943-2.307.61-.62.943-1.463.943-2.307v-1.52c-.721-.169-1.442-.281-2.219-.281-3.937 0-7.32 2.645-8.485 6.246-.167.507 0 1.07.333 1.407l.942.957c.222.225.5.338.832.338 1.387 0 2.718.563 3.716 1.576l.167.168c.277.17.388.45.388.788ZM19.506 20.153h-.5c-.498 0-.831-.394-.831-.844v-.506c0-.507.388-.845.832-.845h.499c.444 0 .832.394.832.845v.506c0 .45-.388.844-.832.844ZM24.72 21.11h-1.553c-.5 0-.999.226-1.387.563l-.333.338a1.119 1.119 0 0 0-.333.788v.281c0 .62-.499 1.07-1.053 1.07-.61 0-1.054.506-1.054 1.069v2.926c2.995-1.07 5.213-3.77 5.712-7.035ZM18.563 22.123a.382.382 0 0 1-.388-.394c0-.225.166-.394.388-.394s.388.169.388.394c.056.225-.166.394-.388.394ZM21.447 16.72a.382.382 0 0 1-.388-.393c0-.226.166-.394.388-.394s.388.168.388.394c.055.168-.166.393-.388.393ZM13.683 28.426v-.731c0-1.407-1.11-2.533-2.496-2.533h-2.33a9.333 9.333 0 0 0 4.826 3.264Z" fill="#E03"/><path d="M19.284 5.071a3.364 3.364 0 0 0-3.494-3.377c-1.609.057-3.05 1.52-3.162 3.152a3.541 3.541 0 0 0 1.22 2.87 7.778 7.778 0 0 1 1.941 2.307l.111.17c.056.056.111.056.167 0l.055-.113c.5-.9 1.165-1.745 1.942-2.364a3.51 3.51 0 0 0 1.22-2.645Z" fill="#92001F"/><path d="m16.178 6.535.5-.282c.277-.169.499-.337.72-.563a.95.95 0 0 0-.055-1.407c-.388-.337-.943-.28-1.331.057l-.056.056c-.055.056-.11.056-.11 0l-.056-.056c-.333-.338-.943-.394-1.33-.056-.39.393-.445 1.012-.056 1.406.221.226.443.394.72.563l.5.282.166.168c.056.057.111.057.167 0a.768.768 0 0 0 .221-.168Z" fill="#fff"/></svg>
