<svg width="30" height="30" fill="none" xmlns="http://www.w3.org/2000/svg"><path d="M24.021 27.02H6.941V16.65l8.54-6.71 8.54 6.1v10.98Z" fill="#DCDCDC"/><mask id="a" style="mask-type:alpha" maskUnits="userSpaceOnUse" x="6" y="9" width="19" height="19"><path d="M24.021 27.02H6.941V16.65l8.54-6.71 8.54 6.1v10.98Z" fill="#DCDCDC"/></mask><g mask="url(#a)"><path fill="#C4C4C4" d="M15.786 8.72h10.675v20.741H15.786z"/></g><path d="M25.593 27.021H5.72v-1.22h19.873v1.22Z" fill="#727272"/><path d="M18.19 25.8h-4.88v-5.037c0-1.26 1.093-2.283 2.44-2.283 1.346 0 2.44 1.024 2.44 2.283v5.038Z" fill="#E03"/><mask id="b" style="mask-type:alpha" maskUnits="userSpaceOnUse" x="13" y="18" width="6" height="8"><path d="M18.19 25.8h-4.88v-5.037c0-1.26 1.093-2.283 2.44-2.283 1.346 0 2.44 1.024 2.44 2.283v5.038Z" fill="#C4C4C4"/></mask><g mask="url(#b)"><path fill="#92001F" d="M15.75 16.041h3.66v10.98h-3.66z"/></g><path fill-rule="evenodd" clip-rule="evenodd" d="m15.75 7.5 10.433 7.364a1 1 0 0 1 .24 1.394l-.629.891a1 1 0 0 1-1.359.264l-8.685-5.606-8.685 5.606a1 1 0 0 1-1.36-.264l-.628-.89a1 1 0 0 1 .24-1.395L15.75 7.5Z" fill="#E03"/><mask id="c" style="mask-type:alpha" maskUnits="userSpaceOnUse" x="4" y="7" width="23" height="11"><path fill-rule="evenodd" clip-rule="evenodd" d="m15.75 7.5 10.433 7.364a1 1 0 0 1 .24 1.394l-.629.891a1 1 0 0 1-1.359.264l-8.685-5.606-8.685 5.606a1 1 0 0 1-1.36-.264l-.628-.89a1 1 0 0 1 .24-1.395L15.75 7.5Z" fill="#E03"/></mask><g mask="url(#c)"><path fill="#92001F" d="M15.785 6.28h11.896v12.201H15.785z"/></g><path d="M11.706 6.595c0 1.006-.326 2.054-1.082 3.081-.406.553-1.17 1.4-1.74 1.927-.339.313-.644.428-.947.322-.347-.12-.63-.409-.9-.657-.48-.442-1.169-1.202-1.456-1.592C4.826 8.65 4.5 7.601 4.5 6.595A3.599 3.599 0 0 1 8.103 3c1.99 0 3.603 1.61 3.603 3.595Z" fill="#E03"/><path d="M9.905 6.589c0 .991-.807 1.795-1.802 1.795a1.798 1.798 0 0 1-1.801-1.795c0-.991.806-1.795 1.801-1.795.995 0 1.802.804 1.802 1.795Z" fill="#92001F"/></svg>
