<svg width="30" height="30" fill="none" xmlns="http://www.w3.org/2000/svg"><path d="M15.299 20.584a.82.82 0 0 1-.822-.82v-1.195h-2.35v1.194a.82.82 0 0 1-.821.821c-.72 0-1.302.583-1.302 1.3 0 .364.293.653.653.653h5.287a.652.652 0 0 0 .653-.652c.003-.718-.58-1.3-1.298-1.3Z" fill="#92001F"/><path d="M15.298 20.584h-3.996c-.719 0-1.302.583-1.302 1.3 0 .363.293.653.653.653h5.291a.651.651 0 0 0 .652-.652c.004-.718-.579-1.301-1.298-1.301Z" fill="#E03"/><path d="M20.619 19.302H5.98a1.481 1.481 0 0 1-1.481-1.48V8.325c0-.818.664-1.48 1.481-1.48H20.62c.817 0 1.481.662 1.481 1.48v9.497c0 .817-.664 1.48-1.481 1.48Z" fill="#C4C4C4"/><path d="M4.5 17.18v.642c0 .817.664 1.48 1.481 1.48H20.62c.817 0 1.481-.663 1.481-1.48v-.641H4.5Z" fill="#E03"/><path d="M22.1 16.425H4.5v.755h17.6v-.755Z" fill="#828282"/><path d="M13.3 18.605a.403.403 0 1 0 0-.806.403.403 0 0 0 0 .806Z" fill="#92001F"/><path d="M23.984 23.255H18.85a1.39 1.39 0 0 1-1.392-1.39V12.26c0-.769.622-1.39 1.392-1.39h5.135c.77 0 1.392.621 1.392 1.39v9.603c0 .77-.625 1.391-1.392 1.391Z" fill="#DCDCDC"/><path d="M23.984 10.87H18.85a1.39 1.39 0 0 0-1.392 1.391v9.603c0 .77.622 1.391 1.392 1.391h5.135a1.39 1.39 0 0 0 1.392-1.39V12.26c0-.769-.625-1.39-1.392-1.39Zm.875 10.994a.876.876 0 0 1-.875.875H18.85a.876.876 0 0 1-.876-.875v-9.603c0-.482.393-.874.876-.874h.65a.47.47 0 0 1 .367.172c.09.109.225.173.367.173h2.372a.47.47 0 0 0 .367-.172.479.479 0 0 1 .367-.173h.65c.483 0 .876.392.876.874v9.603h-.006Z" fill="#E03"/><path d="M17.457 15.151h-.029a.095.095 0 0 1-.095-.095v-.761c0-.052.044-.096.096-.096h.028v.952ZM17.457 16.302h-.029a.095.095 0 0 1-.095-.095v-.761c0-.052.044-.096.096-.096h.028v.952ZM25.376 14.202h.028c.052 0 .096.04.096.095v.761a.095.095 0 0 1-.096.096h-.028v-.952Z" fill="#92001F"/></svg>
